<svg width="545" height="404" viewBox="0 0 545 404" fill="none" xmlns="http://www.w3.org/2000/svg">
<g clip-path="url(#clip0_43_2)">
<path d="M32.8853 328.094C33.5557 353.077 37.7478 377.841 45.3379 401.656C45.5062 402.209 45.693 402.753 45.8747 403.306H92.3417C92.2929 402.81 92.2424 402.257 92.1936 401.656C89.0955 366.095 106.795 152.243 128.153 115.23C126.282 118.233 29.2824 215.101 32.8853 328.094Z" fill="white"/>
<path d="M36.3722 401.656C36.7609 402.209 37.1648 402.762 37.5788 403.306H72.4395C72.1753 402.835 71.869 402.283 71.514 401.656C65.7554 391.28 48.7105 360.255 32.8888 328.094C15.8926 293.531 0.286452 257.658 1.60069 244.674C1.1934 247.601 -10.5726 336.87 36.3722 401.656Z" fill="white"/>
<path d="M185.451 276.536C185.341 276.944 185.263 277.36 185.218 277.78L151.651 295.38L143.856 290.48L134.911 301.257L147.865 311.271C148.911 312.08 150.192 312.529 151.516 312.549C152.839 312.569 154.133 312.16 155.204 311.383L190.103 286.071C191.608 286.696 193.267 286.849 194.861 286.509C196.455 286.169 197.907 285.353 199.025 284.169C200.143 282.985 200.873 281.49 201.119 279.881C201.365 278.273 201.114 276.628 200.4 275.165C199.687 273.702 198.544 272.491 197.124 271.692C195.704 270.894 194.074 270.546 192.451 270.695C190.828 270.844 189.289 271.482 188.039 272.526C186.788 273.569 185.886 274.968 185.451 276.536Z" fill="#9E616A"/>
<path d="M225.922 395.797L232.653 391.475L219.16 363.501L209.227 369.879L225.922 395.797Z" fill="#9E616A"/>
<path d="M222.792 394.705L236.047 386.195C238.287 384.757 241.008 384.265 243.611 384.83C246.214 385.394 248.486 386.968 249.926 389.205L250.103 389.479L228.401 403.413L222.792 394.705Z" fill="#2F2E41"/>
<path d="M128.953 347.745L180.617 314.72C180.617 314.72 190.11 313.805 195.807 325.015L230.215 374.361L215.535 384.279L177.354 344.696L151.153 370.566C151.153 370.566 189.755 364.246 188.45 389.661C187.414 409.83 134.581 402.912 112.817 399.196C108.683 398.523 104.748 396.949 101.292 394.587C97.8356 392.225 94.9425 389.132 92.8178 385.528C90.4836 381.486 89.2288 376.896 91.1894 372.558C96.4176 360.988 128.953 347.745 128.953 347.745Z" fill="#2F2E41"/>
<path d="M103.341 375.345L88.4523 372.337L92.695 299.38L109.826 278.43L120.033 276.626C123.076 276.075 126.215 276.685 128.828 278.336C131.441 279.987 133.337 282.558 134.141 285.539L138.64 301.948C146.274 314.851 135.58 329.813 134.594 331.143L135.15 353.771L103.341 375.345Z" fill="#E1E1E1"/>
<path d="M117.204 281.288L118.149 277.951C118.149 277.951 128.4 270.407 144.065 289.957L136.559 303.316L120.242 302.664L117.204 281.288Z" fill="#E1E1E1"/>
<path d="M140.787 255.324C143.691 267.21 132.243 268.094 118.663 271.401C105.084 274.708 94.5142 279.187 91.61 267.301C88.7058 255.414 88.9353 233.035 108.146 228.356C128.019 223.516 137.883 243.438 140.787 255.324Z" fill="#2F2E41"/>
<path d="M117.031 279.007C126.437 279.007 134.062 271.394 134.062 262.003C134.062 252.613 126.437 245 117.031 245C107.625 245 100 252.613 100 262.003C100 271.394 107.625 279.007 117.031 279.007Z" fill="#9E616A"/>
<path d="M92.5136 263.086L99.0578 261.492L99.9729 252.718L102.522 260.648L105.65 259.886L106.184 254.768L107.671 259.394L130.912 253.734C129.779 249.096 126.847 245.098 122.761 242.618C118.675 240.139 113.77 239.381 109.124 240.513L105.756 241.333C103.456 241.893 101.289 242.9 99.3786 244.297C97.4683 245.693 95.8522 247.451 94.6225 249.471C93.3928 251.491 92.5736 253.733 92.2118 256.069C91.85 258.405 91.9525 260.789 92.5136 263.086Z" fill="#2F2E41"/>
<path d="M143.707 338.965C143.298 339.071 142.898 339.21 142.51 339.38L110.559 319L110.958 309.812L97.1484 307.399L94.859 323.595C94.674 324.903 94.9192 326.236 95.5576 327.394C96.1961 328.551 97.1934 329.471 98.3998 330.014L137.719 347.726C137.921 349.34 138.611 350.855 139.697 352.068C140.783 353.282 142.213 354.137 143.797 354.519C145.381 354.901 147.044 354.793 148.565 354.208C150.086 353.624 151.392 352.591 152.311 351.247C153.23 349.903 153.717 348.312 153.707 346.685C153.698 345.058 153.193 343.472 152.259 342.139C151.325 340.805 150.006 339.788 148.479 339.221C146.951 338.654 145.287 338.564 143.707 338.965Z" fill="#9E616A"/>
<path d="M112.41 281.76L110.003 278.73C110.003 278.73 100.334 275.621 95.1122 288.654C89.8906 301.687 94.7859 314.394 94.7859 314.394L117.631 316.349L119.262 295.17L112.41 281.76Z" fill="#E1E1E1"/>
<path d="M366.608 90.7154H545V149.184H538.243V164.476L522.926 149.184H366.608V90.7154Z" fill="#E6E6E6"/>
<path d="M540.045 96.4088H371.563V143.184H540.045V96.4088Z" fill="white"/>
<path d="M466.231 110.065H385.111V112.523H466.231V110.065Z" fill="#6C63FF"/>
<path d="M526.496 118.568H385.111V121.025H526.496V118.568Z" fill="#E6E6E6"/>
<path d="M526.358 127.07H385.111V129.528H526.358V127.07Z" fill="#E6E6E6"/>
<path d="M438.376 0H259.983V58.4689H266.741V73.7612L282.057 58.4689H438.376V0Z" fill="#E6E6E6"/>
<path d="M433.421 5.69382H264.939V52.4691H433.421V5.69382Z" fill="white"/>
<path d="M360.958 19.7999H279.839V22.2577H360.958V19.7999Z" fill="#6C63FF"/>
<path d="M421.224 28.3023H279.839V30.7601H421.224V28.3023Z" fill="#E6E6E6"/>
<path d="M421.085 36.8047H279.839V39.2625H421.085V36.8047Z" fill="#E6E6E6"/>
<path d="M217.528 263.534H217.212V254.896C217.212 254.24 217.082 253.59 216.831 252.983C216.579 252.376 216.21 251.825 215.745 251.361C215.28 250.897 214.728 250.529 214.121 250.277C213.513 250.026 212.862 249.897 212.204 249.897H193.875C193.218 249.897 192.566 250.026 191.959 250.277C191.351 250.529 190.799 250.897 190.334 251.361C189.87 251.825 189.501 252.376 189.249 252.983C188.997 253.59 188.868 254.24 188.868 254.896V302.282C188.868 302.939 188.997 303.589 189.249 304.195C189.501 304.802 189.87 305.353 190.334 305.817C190.799 306.282 191.351 306.65 191.959 306.901C192.566 307.152 193.218 307.282 193.875 307.282H212.204C212.862 307.282 213.513 307.152 214.121 306.901C214.728 306.65 215.28 306.282 215.745 305.817C216.21 305.353 216.579 304.802 216.831 304.195C217.082 303.589 217.212 302.939 217.212 302.282V269.682H217.528V263.534Z" fill="#3F3D56"/>
<path d="M212.407 251.198H210.014C210.124 251.467 210.166 251.759 210.136 252.048C210.107 252.338 210.006 252.615 209.844 252.857C209.681 253.098 209.462 253.296 209.204 253.433C208.947 253.57 208.66 253.641 208.369 253.641H197.869C197.577 253.641 197.29 253.57 197.033 253.433C196.776 253.296 196.557 253.098 196.394 252.857C196.232 252.615 196.131 252.338 196.101 252.048C196.072 251.759 196.114 251.467 196.224 251.198H193.989C192.997 251.198 192.046 251.591 191.345 252.291C190.644 252.991 190.25 253.941 190.25 254.931V302.248C190.25 302.738 190.346 303.223 190.534 303.676C190.722 304.129 190.998 304.541 191.345 304.887C191.692 305.234 192.104 305.509 192.558 305.697C193.012 305.884 193.498 305.981 193.989 305.981H212.407C212.898 305.981 213.384 305.884 213.838 305.697C214.291 305.509 214.703 305.234 215.051 304.887C215.398 304.541 215.673 304.129 215.861 303.676C216.049 303.223 216.146 302.738 216.146 302.248V254.931C216.146 254.441 216.049 253.955 215.861 253.502C215.673 253.049 215.398 252.638 215.051 252.291C214.703 251.944 214.291 251.669 213.838 251.482C213.384 251.294 212.898 251.198 212.407 251.198Z" fill="white"/>
<path d="M416.127 172.532H197.07V244.33H205.367V263.107L224.175 244.33H416.127V172.532Z" fill="white"/>
<path d="M204.672 264.783V245.024H196.375V171.838H416.822V245.024H224.463L204.672 264.783ZM197.765 243.635H206.063V261.431L223.887 243.635H415.432V173.226H197.765L197.765 243.635Z" fill="#3F3D56"/>
<path d="M321.062 196.846H221.451V199.864H321.062V196.846Z" fill="#6C63FF"/>
<path d="M395.065 207.286H221.451V210.304H395.065V207.286Z" fill="#E6E6E6"/>
<path d="M394.895 217.727H221.451V220.745H394.895V217.727Z" fill="#E6E6E6"/>
<path d="M298.199 404H33.2982C33.1138 404 32.9369 403.927 32.8065 403.797C32.6762 403.666 32.6029 403.49 32.6029 403.306C32.6029 403.122 32.6762 402.945 32.8065 402.815C32.9369 402.685 33.1138 402.612 33.2982 402.612H298.199C298.383 402.612 298.56 402.685 298.69 402.815C298.821 402.945 298.894 403.122 298.894 403.306C298.894 403.49 298.821 403.666 298.69 403.797C298.56 403.927 298.383 404 298.199 404Z" fill="#3F3D56"/>
</g>
<defs>
<clipPath id="clip0_43_2">
<rect width="545" height="404" fill="white"/>
</clipPath>
</defs>
</svg>
