<svg xmlns="http://www.w3.org/2000/svg" version="1.1" xmlns:xlink="http://www.w3.org/1999/xlink" xmlns:svgjs="http://svgjs.dev/svgjs" viewBox="0 0 11.550753749245201 1.9822332047412625"><g transform="matrix(1,0,0,1,2.028966746433143,0.39636660237063137)"><g><path d=" M 0.34125 1.1422499999999998 Q 0.20700000000000002 1.0739999999999998 0.12675 0.9367499999999997 Q 0.0465 0.7994999999999998 0.0465 0.5999999999999998 Q 0.0465 0.4319999999999997 0.10725 0.2962499999999998 Q 0.168 0.16049999999999986 0.28575 0.08099999999999974 Q 0.4035 0.0014999999999998348 0.5700000000000001 0.0014999999999998348 Q 0.6555 0.0014999999999998348 0.723 0.04124999999999979 Q 0.7905 0.08099999999999974 0.8205 0.14249999999999985 L 0.8505 0.0239999999999998 L 1.0785 0.0239999999999998 L 1.0785 0.5024999999999997 L 0.8445 0.5024999999999997 L 0.8445 0.4784999999999998 Q 0.8445 0.38549999999999973 0.80175 0.3262499999999997 Q 0.759 0.2669999999999998 0.675 0.2669999999999998 Q 0.618 0.2669999999999998 0.57075 0.3104999999999998 Q 0.5235 0.35399999999999976 0.4965 0.42449999999999977 Q 0.46950000000000003 0.4949999999999998 0.46950000000000003 0.5699999999999997 Q 0.46950000000000003 0.7169999999999997 0.543 0.8002499999999998 Q 0.6165 0.8834999999999997 0.744 0.8834999999999997 Q 0.834 0.8834999999999997 0.91125 0.8534999999999997 Q 0.9885 0.8234999999999998 1.038 0.7889999999999997 L 1.0545 0.8024999999999998 L 1.0545 1.1144999999999998 Q 0.9615 1.1684999999999999 0.858 1.1894999999999998 Q 0.7545000000000001 1.2104999999999997 0.6375000000000001 1.2104999999999997 Q 0.47550000000000003 1.2104999999999997 0.34125 1.1422499999999998 M 1.18650732421875 1.1894999999999998 L 1.18650732421875 0.9314999999999998 L 1.30350732421875 0.9314999999999998 L 1.30350732421875 0.2819999999999998 L 1.18650732421875 0.2819999999999998 L 1.18650732421875 0.0239999999999998 L 1.77150732421875 0.022499999999999742 L 1.77150732421875 0.2819999999999998 L 1.67850732421875 0.2819999999999998 L 1.67850732421875 0.47399999999999975 L 1.95900732421875 0.47399999999999975 L 1.95900732421875 0.2819999999999998 L 1.86600732421875 0.2819999999999998 L 1.86600732421875 0.022499999999999742 L 2.4510073242187502 0.0239999999999998 L 2.4510073242187502 0.2819999999999998 L 2.3340073242187502 0.2819999999999998 L 2.3340073242187502 0.9314999999999998 L 2.4510073242187502 0.9314999999999998 L 2.4510073242187502 1.1894999999999998 L 1.86600732421875 1.1894999999999998 L 1.86600732421875 0.9314999999999998 L 1.95900732421875 0.9314999999999998 L 1.95900732421875 0.7244999999999997 L 1.67850732421875 0.7244999999999997 L 1.67850732421875 0.9314999999999998 L 1.77150732421875 0.9314999999999998 L 1.77150732421875 1.1894999999999998 L 1.18650732421875 1.1894999999999998 M 2.528974365234375 1.1894999999999998 L 2.528974365234375 0.9314999999999998 L 2.644474365234375 0.9314999999999998 L 2.845474365234375 0.2819999999999998 L 2.692474365234375 0.2819999999999998 L 2.692474365234375 0.0239999999999998 L 3.418474365234375 0.0239999999999998 L 3.677974365234375 0.9314999999999998 L 3.793474365234375 0.9314999999999998 L 3.793474365234375 1.1894999999999998 L 3.137974365234375 1.1894999999999998 L 3.137974365234375 0.9314999999999998 L 3.232474365234375 0.9314999999999998 L 3.200974365234375 0.8069999999999997 L 2.936974365234375 0.8069999999999997 L 2.903974365234375 0.9314999999999998 L 3.043474365234375 0.9314999999999998 L 3.043474365234375 1.1894999999999998 L 2.528974365234375 1.1894999999999998 M 2.974474365234375 0.6299999999999998 L 3.166474365234375 0.6299999999999998 L 3.080974365234375 0.2729999999999998 L 2.974474365234375 0.6299999999999998 M 4.060487548828125 1.1894999999999998 L 4.060487548828125 0.9254999999999998 L 4.1804875488281255 0.9254999999999998 L 4.1804875488281255 0.2819999999999998 L 4.076987548828125 0.2819999999999998 L 4.045487548828125 0.48299999999999976 L 3.839987548828125 0.48299999999999976 L 3.839987548828125 0.0239999999999998 L 4.936487548828125 0.0239999999999998 L 4.936487548828125 0.48299999999999976 L 4.730987548828125 0.48299999999999976 L 4.699487548828125 0.2819999999999998 L 4.592987548828125 0.2819999999999998 L 4.592987548828125 0.9254999999999998 L 4.712987548828125 0.9254999999999998 L 4.712987548828125 1.1894999999999998 L 4.060487548828125 1.1894999999999998 M 5.08050439453125 0.4979999999999998 L 5.02200439453125 -2.220446049250313e-16 L 5.37300439453125 -2.220446049250313e-16 L 5.30100439453125 0.4979999999999998 L 5.08050439453125 0.4979999999999998 M 5.426984619140625 1.1894999999999998 L 5.426984619140625 0.9314999999999998 L 5.542484619140625 0.9314999999999998 L 5.7434846191406255 0.2819999999999998 L 5.590484619140625 0.2819999999999998 L 5.590484619140625 0.0239999999999998 L 6.316484619140625 0.0239999999999998 L 6.575984619140625 0.9314999999999998 L 6.691484619140625 0.9314999999999998 L 6.691484619140625 1.1894999999999998 L 6.035984619140625 1.1894999999999998 L 6.035984619140625 0.9314999999999998 L 6.130484619140625 0.9314999999999998 L 6.098984619140625 0.8069999999999997 L 5.834984619140625 0.8069999999999997 L 5.801984619140625 0.9314999999999998 L 5.941484619140625 0.9314999999999998 L 5.941484619140625 1.1894999999999998 L 5.426984619140625 1.1894999999999998 M 5.872484619140625 0.6299999999999998 L 6.064484619140625 0.6299999999999998 L 5.9789846191406255 0.2729999999999998 L 5.872484619140625 0.6299999999999998 M 6.751497802734375 0.9269999999999998 L 6.865497802734375 0.9269999999999998 L 6.865497802734375 0.2819999999999998 L 6.754497802734375 0.2819999999999998 L 6.754497802734375 0.022499999999999742 L 7.378497802734375 0.022499999999999742 Q 7.592997802734375 0.022499999999999742 7.731747802734375 0.09524999999999983 Q 7.870497802734375 0.1679999999999997 7.870497802734375 0.35999999999999976 Q 7.870497802734375 0.5834999999999998 7.748997802734375 0.6817499999999997 Q 7.627497802734375 0.7799999999999998 7.384497802734375 0.7799999999999998 Q 7.324497802734375 0.7799999999999998 7.274997802734375 0.7724999999999997 L 7.274997802734375 0.9269999999999998 L 7.381497802734375 0.9269999999999998 L 7.381497802734375 1.1894999999999998 L 6.751497802734375 1.1894999999999998 L 6.751497802734375 0.9269999999999998 M 7.306497802734375 0.5414999999999998 Q 7.472997802734375 0.5414999999999998 7.472997802734375 0.39449999999999974 Q 7.472997802734375 0.3404999999999998 7.436247802734375 0.3112499999999998 Q 7.399497802734375 0.2819999999999998 7.337997802734375 0.2819999999999998 L 7.276497802734375 0.2819999999999998 L 7.276497802734375 0.5414999999999998 L 7.306497802734375 0.5414999999999998 M 7.9829736328125 0.9269999999999998 L 8.0969736328125 0.9269999999999998 L 8.0969736328125 0.2819999999999998 L 7.9859736328125 0.2819999999999998 L 7.9859736328125 0.022499999999999742 L 8.6099736328125 0.022499999999999742 Q 8.8244736328125 0.022499999999999742 8.9632236328125 0.09524999999999983 Q 9.1019736328125 0.1679999999999997 9.1019736328125 0.35999999999999976 Q 9.1019736328125 0.5834999999999998 8.980473632812501 0.6817499999999997 Q 8.8589736328125 0.7799999999999998 8.6159736328125 0.7799999999999998 Q 8.5559736328125 0.7799999999999998 8.5064736328125 0.7724999999999997 L 8.5064736328125 0.9269999999999998 L 8.6129736328125 0.9269999999999998 L 8.6129736328125 1.1894999999999998 L 7.9829736328125 1.1894999999999998 L 7.9829736328125 0.9269999999999998 M 8.5379736328125 0.5414999999999998 Q 8.7044736328125 0.5414999999999998 8.7044736328125 0.39449999999999974 Q 8.7044736328125 0.3404999999999998 8.6677236328125 0.3112499999999998 Q 8.6309736328125 0.2819999999999998 8.5694736328125 0.2819999999999998 L 8.5079736328125 0.2819999999999998 L 8.5079736328125 0.5414999999999998 L 8.5379736328125 0.5414999999999998" fill="#3576df" fill-rule="nonzero"></path></g><g></g><g clip-path="url(#SvgjsClipPath1035)"><g clip-path="url(#SvgjsClipPath1033ed0ed147-ce6a-4f27-9375-548e431df1bd)"><path d=" M -1.0069840547989874 0.5983666839186347 C -1.1874308365273816 0.5570767011073449 -1.3748732220249023 0.5570767011073446 -1.5553200037532964 0.5983666839186347 C -1.6143637636591996 0.6137870473304858 -1.661629206511709 0.6787148932751218 -1.661629206511709 0.7356282082359669 L -1.661629206511709 0.8465127951382906 C -1.661629206511709 0.9034261100991354 -1.6143637636591996 0.9682525062844831 -1.5553200037532964 0.9837743194556225 C -1.5386822432299836 0.9876294103085854 -1.5218415831880936 0.9906729030872401 -1.5049907781702745 0.9938178456251836 L -1.3626567658885178 1.1950941680535552 C -1.3369899767885292 1.2314131818788359 -1.315888426856522 1.224818947525084 -1.315888426856522 1.1802825031974353 L -1.315888426856522 1.0137019984457285 C -1.212032141313599 1.0168289673283302 -1.1081985341174654 1.0067728563227951 -1.0068724600637693 0.9837743194556223 C -0.9478287001578671 0.9682525062844831 -0.9005531123294284 0.9034261100991354 -0.9005531123294284 0.8465127951382906 L -0.9005531123294284 0.7356282082359669 C -0.9007560118480055 0.6787148932751218 -0.9480417446523722 0.6138884970897743 -1.0069840547989874 0.5983666839186347 Z M -0.5062280429509816 0.016552314399122713 C -0.7514774682796284 -0.04421629201625864 -1.0078517455042262 -0.04421629201625864 -1.2531011708328725 0.016552314399122782 C -1.3119420312201997 0.03278427588528172 -1.3592176190486376 0.09740777255205227 -1.3592176190486376 0.15482833630933976 L -1.3592176190486376 0.35072782149542125 C -1.3592176190486376 0.40814838525270886 -1.3119420312201993 0.4727718819194793 -1.253101170832873 0.4890038434056384 C -1.1166679498073324 0.5226376522617466 -0.9762928996870182 0.5375522880270217 -0.8358383108792994 0.5333373882147102 L -0.8358383108792994 0.764439939873899 C -0.835838310879298 0.8089763842015479 -0.81483821070658 0.8156720683145885 -0.7890699718473023 0.7793530544893076 L -0.5977357258292026 0.5088879962261832 C -0.567097898524078 0.5032068097060276 -0.5364600712189527 0.49661257535227554 -0.5061265931916934 0.489105293164927 C -0.4472857328043667 0.4728733316787679 -0.4000101449759288 0.40824983501199735 -0.4000101449759288 0.3508292712547098 L -0.4000101449759288 0.15492978606862823 C -0.40008115980743075 0.09740777255205227 -0.4473871825636557 0.032682826125993214 -0.5062280429509816 0.016552314399122706 Z" fill="#3361e1" transform="matrix(1,0,0,1,0,0)" fill-rule="nonzero"></path></g></g></g><defs><clipPath id="SvgjsClipPath1035"><path d=" M -1.661629206511709 -0.029029062449197562 h 1.2616292065117092 v 1.247558124898395 h -1.2616292065117092 Z"></path></clipPath><clipPath id="SvgjsClipPath1033ed0ed147-ce6a-4f27-9375-548e431df1bd"><path d=" M -1.661629206511709 -0.029029062449197562 L -0.3999999999999999 -0.029029062449197562 L -0.3999999999999999 1.2185290624491973 L -1.661629206511709 1.2185290624491973 Z"></path></clipPath></defs></svg>