<svg transform="scale(1)" id="_0101_chatting" xmlns="http://www.w3.org/2000/svg" xmlns:xlink="http://www.w3.org/1999/xlink" viewBox="0 0 500 500" class="show_show__wrapper__graphic__5Waiy "><title>React</title><defs><style>.cls-1{fill:none;}.cls-1,.cls-2,.cls-3,.cls-4,.cls-5,.cls-6,.cls-7,.cls-8,.cls-9,.cls-10,.cls-11,.cls-12,.cls-13,.cls-14,.cls-15,.cls-16,.cls-17,.cls-18,.cls-19,.cls-20,.cls-21,.cls-22,.cls-23,.cls-24,.cls-25{stroke-width:0px;}.cls-2{fill:url(#linear-gradient);}.cls-3{opacity:.18;}.cls-3,.cls-26{isolation:isolate;}.cls-3,.cls-26,.cls-25{fill:#2563EB;}.cls-4{fill:url(#linear-gradient-11);}.cls-5{fill:url(#linear-gradient-12);}.cls-6{fill:url(#linear-gradient-13);}.cls-7{fill:url(#linear-gradient-10);}.cls-8{fill:url(#linear-gradient-17);}.cls-9{fill:url(#linear-gradient-16);}.cls-10{fill:url(#linear-gradient-19);}.cls-11{fill:url(#linear-gradient-15);}.cls-12{fill:url(#linear-gradient-18);}.cls-13{fill:url(#linear-gradient-14);}.cls-26{font-family:Arial-BoldMT, Arial;font-size:13.27px;font-weight:700;}.cls-14{fill:url(#linear-gradient-4);}.cls-15{fill:url(#linear-gradient-2);}.cls-16{fill:url(#linear-gradient-3);}.cls-17{fill:url(#linear-gradient-8);}.cls-18{fill:url(#linear-gradient-9);}.cls-19{fill:url(#linear-gradient-7);}.cls-20{fill:url(#linear-gradient-5);}.cls-21{fill:url(#linear-gradient-6);}.cls-22{fill:#3e3e54;}.cls-23{fill:#fff;}.cls-24{fill:#ffb4a3;}</style><linearGradient id="linear-gradient" x1="886.31" y1="2630.5" x2="871.31" y2="2634.23" gradientTransform="translate(-510.46 2850.43) scale(1 -1)" gradientUnits="userSpaceOnUse"><stop offset="0" stop-color="#000" stop-opacity="0"></stop><stop offset=".99" stop-color="#000"></stop></linearGradient><linearGradient id="linear-gradient-2" x1="821.37" y1="2575.06" x2="890.33" y2="2499.46" xlink:href="#linear-gradient"></linearGradient><linearGradient id="linear-gradient-3" x1="870.78" y1="2610.75" x2="789.98" y2="2571.69" xlink:href="#linear-gradient"></linearGradient><linearGradient id="linear-gradient-4" x1="850.96" y1="2694.48" x2="857.35" y2="2679.38" xlink:href="#linear-gradient"></linearGradient><linearGradient id="linear-gradient-5" x1="873.68" y1="2641.29" x2="853.15" y2="2634.6" xlink:href="#linear-gradient"></linearGradient><linearGradient id="linear-gradient-6" x1="841.26" y1="2631.4" x2="808.44" y2="2641.59" gradientTransform="translate(-510.46 2850.43) scale(1 -1)" gradientUnits="userSpaceOnUse"><stop offset=".02" stop-color="#fff" stop-opacity="0"></stop><stop offset=".58" stop-color="#fff" stop-opacity=".39"></stop><stop offset=".68" stop-color="#fff" stop-opacity=".68"></stop><stop offset="1" stop-color="#fff"></stop></linearGradient><linearGradient id="linear-gradient-7" x1="856.01" y1="2634.14" x2="809.7" y2="2611.3" xlink:href="#linear-gradient"></linearGradient><linearGradient id="linear-gradient-8" x1="665.06" y1="2533.99" x2="675.35" y2="2827.46" gradientTransform="translate(-471 2852.1) scale(1 -1)" xlink:href="#linear-gradient"></linearGradient><linearGradient id="linear-gradient-9" x1="711.4" y1="2615.13" x2="707.66" y2="2723.96" xlink:href="#linear-gradient-6"></linearGradient><linearGradient id="linear-gradient-10" x1="718.66" y1="2635.83" x2="672.55" y2="2441.43" xlink:href="#linear-gradient"></linearGradient><linearGradient id="linear-gradient-11" x1="698.62" y1="2531.38" x2="718.14" y2="2631.07" xlink:href="#linear-gradient"></linearGradient><linearGradient id="linear-gradient-12" x1="710.77" y1="2580.34" x2="716.05" y2="2473.79" xlink:href="#linear-gradient"></linearGradient><linearGradient id="linear-gradient-13" x1="713.11" y1="2624.63" x2="712.69" y2="2655.37" xlink:href="#linear-gradient"></linearGradient><linearGradient id="linear-gradient-14" x1="706.68" y1="2527.62" x2="712.3" y2="2573.73" xlink:href="#linear-gradient"></linearGradient><linearGradient id="linear-gradient-15" x1="703.63" y1="2634.89" x2="713.7" y2="2614.95" xlink:href="#linear-gradient"></linearGradient><linearGradient id="linear-gradient-16" x1="709.03" y1="2665.13" x2="709.33" y2="2651.27" xlink:href="#linear-gradient"></linearGradient><linearGradient id="linear-gradient-17" x1="688.05" y1="2586.06" x2="720.03" y2="2544.95" xlink:href="#linear-gradient"></linearGradient><linearGradient id="linear-gradient-18" x1="758.25" y1="2602.53" x2="973.22" y2="2610" xlink:href="#linear-gradient"></linearGradient><linearGradient id="linear-gradient-19" x1="749.77" y1="2446.48" x2="762.02" y2="2508.25" xlink:href="#linear-gradient"></linearGradient></defs><path class="cls-3" id="background" d="M152.13,77.9c-11.8,13.92-18.74,31.9-32.56,43.78-12.56,10.74-29.25,15.15-43.69,23.24-45.65,25.58-61.91,83.33-36.33,128.97,2.14,3.81,4.53,7.47,7.17,10.95,5.82,7.67,12.97,14.73,15.92,23.95,5.6,17.4-5.6,36.64-1.04,54.33,2.52,9.72,9.46,17.6,16.2,25.05,14.07,15.62,29.3,31.95,49.58,37.48,25.16,6.86,52.53-4.55,77.82,1.87,11.97,3.04,22.58,9.88,33.94,14.73,41.34,17.7,93.43,5.81,123.05-28.03,6.16-7.03,11.53-14.98,19.23-20.28,18.58-12.8,44.43-6.43,65.46-14.63,24.3-9.47,37.65-40.41,27.85-64.55-5.94-14.67-18.59-25.79-24.83-40.33-18-41.96,23.07-92.42,4.67-134.21-13.65-31.01-53.15-40.6-87.02-39.74-19.08.48-38.74,2.92-56.85-3.12-53.63-18.12-104.58-83.22-158.59-19.45Z"></path><g id="character_1"><path class="cls-24" d="M359.69,215.02c2.09,2.57,4.37,4.98,6.81,7.22.07.08.17.13.27.16.12,0,.23-.02.32-.09l.87-.47c3.43.09,6.85-.41,10.12-1.47.61-.26,1.3-.26,1.91,0,.28.19.5.46.62.78.6,1.65-.25,3.48-1.9,4.09-.08.03-.16.06-.25.08.71,1.55.4,3.38-.78,4.61-.91.88-2.18,1.31-3.12,2.08-2.34,1.96-2.36,5.48-3.61,8.27-.23.6-.62,1.11-1.13,1.49-1.25.8-2.89,0-4.16-.85-1.88-1.31-3.67-2.75-5.34-4.32-.82-.68-1.49-1.52-1.97-2.47-.31-.82-.49-1.68-.54-2.55l-1.5-13.73c-.05-.27-.03-.55.06-.81.18-.27.44-.47.75-.56,1.08-.41,1.42-1.53,2.57-1.44Z"></path><path class="cls-25" d="M367.3,220.01c-.4.77-.86,1.51-1.35,2.23-.43.51-.81,1.06-1.13,1.65-.35.93-.5,1.92-.42,2.9-.1.83.17,1.66.74,2.27.36.24.78.39,1.22.42,1.78.27,3.58.27,5.36,0,.77-.09,1.52-.34,2.19-.74.68-.51,1.23-1.16,1.63-1.91,3.13-4.9,5.92-10.01,8.33-15.3.07-.14.12-.29.14-.45-.02-.41-.25-.77-.61-.96-.81-.47-1.72-.74-2.65-.79-1.73-.21-3.47-.29-5.21-.23-.58,0-1.15.09-1.69.29-.89.4-5.38,8.54-6.54,10.62Z"></path><path class="cls-2" d="M367.3,220.01c-.4.77-.86,1.51-1.35,2.23-.43.51-.81,1.06-1.13,1.65-.35.93-.5,1.92-.42,2.9-.1.83.17,1.66.74,2.27.36.24.78.39,1.22.42,1.78.27,3.58.27,5.36,0,.77-.09,1.52-.34,2.19-.74.68-.51,1.23-1.16,1.63-1.91,3.13-4.9,5.92-10.01,8.33-15.3.07-.14.12-.29.14-.45-.02-.41-.25-.77-.61-.96-.81-.47-1.72-.74-2.65-.79-1.73-.21-3.47-.29-5.21-.23-.58,0-1.15.09-1.69.29-.89.4-5.38,8.54-6.54,10.62Z"></path><path class="cls-25" d="M368.64,220.99c-.4.77-.84,1.52-1.34,2.23-.43.51-.81,1.07-1.13,1.66-.36.94-.49,1.94-.41,2.94-.1.83.17,1.66.74,2.27.36.24.78.38,1.22.42,1.77.27,3.58.27,5.35,0,.78-.08,1.53-.34,2.2-.74.67-.53,1.22-1.18,1.62-1.93,3.13-4.9,5.92-10.01,8.33-15.3.07-.14.12-.29.15-.45-.02-.41-.25-.77-.61-.96-.81-.47-1.72-.74-2.65-.8-1.73-.21-3.47-.28-5.21-.22-.58-.01-1.15.09-1.69.29-.9.39-5.4,8.52-6.56,10.6Z"></path><path class="cls-22" d="M382.78,313.87c-14.79,17.54-30.52,34.25-47.13,50.08-.57.72-1.44,1.14-2.35,1.17-.52-.13-1-.39-1.37-.77-3.62-3.06-6.61-6.79-8.83-10.97-.43-.56-.32-1.35.23-1.78.03-.02.06-.04.09-.06,12.4-13.06,24.58-26.35,36.53-39.89.44-.42.76-.94.93-1.52.05-.9-.25-1.78-.83-2.46-6.29-9.55-11.55-19.74-15.7-30.4-.3-.6-.41-1.27-.31-1.94.18-.53.51-1.01.94-1.37,3.79-3.74,15.41-12.37,19.78-5.86,2.7,4.03,4.27,9.37,6.12,13.83,2.04,4.86,3.99,9.78,5.85,14.76,2.14,5.68,4.16,11.41,6.06,17.19Z"></path><path class="cls-15" d="M382.78,313.87c-14.79,17.54-30.52,34.25-47.13,50.08-.57.72-1.44,1.14-2.35,1.17-.52-.13-1-.39-1.37-.77-3.62-3.06-6.61-6.79-8.83-10.97-.43-.56-.32-1.35.23-1.78.03-.02.06-.04.09-.06,12.4-13.06,24.58-26.35,36.53-39.89.44-.42.76-.94.93-1.52.05-.9-.25-1.78-.83-2.46-6.29-9.55-11.55-19.74-15.7-30.4-.3-.6-.41-1.27-.31-1.94.18-.53.51-1.01.94-1.37,3.79-3.74,15.41-12.37,19.78-5.86,2.7,4.03,4.27,9.37,6.12,13.83,2.04,4.86,3.99,9.78,5.85,14.76,2.14,5.68,4.16,11.41,6.06,17.19Z"></path><path class="cls-22" d="M328.59,289.7c1.51,11.34,6.87,21.86,8.39,33.21.51,3.75.58,7.55,1.21,11.28.85,5.21,2.74,10.11,3.7,15.25,1.49,7.94.77,16.22,2.78,24.05.11.79.48,1.52,1.04,2.08.75.48,1.64.69,2.53.59l8.93.05c.83-17.62.16-35.28-2.02-52.79-.44-3.53-.94-7.07-1.17-10.62-.86-13.53,2.29-27.29.16-40.72-7.98.71-16,.89-24.01.54-1.78-.08-3.26-.72-3.71.93-.3,1.04.94,4.16,1.1,5.38.5,3.55.58,7.18,1.06,10.76Z"></path><path class="cls-25" d="M365.6,268.77c-.43.65-1.01,1.18-1.69,1.55-3.6,2.31-7.29,4.67-11.55,5.32-1.87.28-3.8.22-5.67.53-2.22.37-4.31,1.29-6.51,1.82-3.34.8-6.82.7-10.11-.27-1.27-.36-2.5-.85-3.66-1.48-.61-.32-1.19-.69-1.73-1.11-.83-.62-1.47-1.44-1.87-2.39-.38-1.2-.48-2.48-.3-3.73h0c.75-10.65,2.3-21.86-2.08-31.59l-1.6.26c-.08,0-.15,0-.23,0h-.17l-.74.11c-2.11-6.97-3.43-14.16-3.93-21.43-.28-4.33-.23-8.91,1.93-12.68,1.87-2.96,4.6-5.29,7.83-6.66,1.76-.79,3.63-1.32,5.54-1.56,3.67-.35,7.37-.35,11.05,0l7.38.47c.85,0,1.69.16,2.49.47.66.34,1.25.81,1.73,1.38,3.83,4.23,4.97,10.41,8.62,14.7h0c.24.29.49.57.76.84.06.06.14.12.19.19h0c.27.22.41.55.39.9,0,.03,0,.06,0,.09h0c-.09.24-.24.45-.44.61-1.19,1.17-2.37,2.32-3.54,3.49.07.85.1,1.74.12,2.64.1,3.39,0,7.06.64,10.21,2.4,11.35,4.8,22.7,7.2,34.07.38,1.05.36,2.2-.04,3.24Z"></path><path class="cls-16" d="M357.56,243.35c-1.89,2.64-4.39,4.78-7.29,6.25-3.35,1.66-7.08,2.33-10.71,3.21-2.21.53-4.6,1.28-5.86,3.19-.82,1.59-1.18,3.37-1.04,5.15-.07,4.16-.17,8.33-.24,12.56,0,1.28-.12,2.74-1.12,3.56-.33.27-.73.44-1.15.52-.66.1-1.33.05-1.97-.15-1.36-.45-2.56-1.3-3.43-2.45-.94-1.23-1.58-2.65-1.89-4.16-.15-.67-.24-1.35-.28-2.03.75-10.65,2.3-21.86-2.08-31.59,5.49-7.98,8.02-3.47,14.17.55,1.36.86,2.8,1.58,4.31,2.14,2.63,1.19,5.5,1.76,8.39,1.68,3.29-.27,6.25-1.93,9.28-3.29,4.51-2.08,2.26,3.01.92,4.86Z"></path><path class="cls-24" d="M330.45,190.35c-.31,1.55-1.04,5.1-1.04,5.1.44.84,1.09,1.56,1.88,2.08,1.36.97,2.94,1.6,4.6,1.82,1.29.18,2.83,0,3.49-1.15.25-.49.39-1.03.42-1.58l.71-6.13c.07-.53.07-1.07,0-1.6-.11-.55-.33-1.07-.62-1.54-1.26-2.08-6.46-11.23-7.58-8.75s-1.43,9.66-1.85,11.74Z"></path><path class="cls-24" d="M334.54,189.62c1.24,2.47,3.12,4.55,5.43,6.05-.02-1.68.19-3.35.61-4.97.36-1.36.88-2.84.33-4.16-.25-.56-.6-1.07-1.04-1.49-1.5-1.5-4.76-3.93-7.09-3.21-.85.26-.66.4-.45,1.31.16.72.33,1.44.54,2.14.41,1.49.96,2.94,1.66,4.32Z"></path><path class="cls-24" d="M352.94,182.63c-.53,2.81-1.85,5.41-3.8,7.5-2.08,1.98-5.21,3.02-7.82,1.99-1.8-.87-3.35-2.2-4.48-3.85-1.18-1.38-2.19-2.9-3.01-4.53-1.12-.68-2.14-1.51-3.04-2.47-1.15-1.03-1.81-2.49-1.83-4.03.12-1.51,1.73-2.92,3.12-2.33,1.37-1.97,1.61-4.52,2.71-6.66,1.61-2.99,4.61-4.98,8-5.31,3.37-.25,6.71.87,9.23,3.12.9.67,1.58,1.58,1.96,2.63.53,1.88.21,4.45,0,6.38-.16,2.54-.51,5.07-1.04,7.56Z"></path><path class="cls-22" d="M356.23,160.99c-3.43.35-6.52-1.88-9.37-3.86s-6.3-3.88-9.57-2.78c-.9.31-1.71.82-2.37,1.49-.43.53-.95.99-1.54,1.35-.44.17-.89.3-1.35.4-2.72.81-3.74,4.16-3.97,6.95-.14,1.8-.14,3.61,0,5.4.16,1.96.65,4.16,2.34,5.15.93.53,2.18.67,2.75,1.57.24.37.43.93.87.95.22,0,.43-.1.58-.26,1.75-1.53.86-4.37,1.29-6.66.04-.26.14-.51.28-.73.29-.31.64-.55,1.04-.69,1.34-.71,2.38-1.89,2.9-3.31,1.82,2.01,4.13,3.5,6.72,4.33.86.21,1.68.56,2.43,1.04.6.55,1.15,1.14,1.64,1.78,2.27,2.33,6.44,2,8.8-.25,2.26-2.43,3.09-5.86,2.21-9.06-.91.51-2.02.51-2.94,0,.27.16,2.65-3.54,2.08-4.16s-3.96,1.25-4.83,1.34Z"></path><path class="cls-14" d="M356.23,160.99c-3.43.35-6.52-1.88-9.37-3.86s-6.3-3.88-9.57-2.78c-.9.31-1.71.82-2.37,1.49-.43.53-.95.99-1.54,1.35-.44.17-.89.3-1.35.4-2.72.81-3.74,4.16-3.97,6.95-.14,1.8-.14,3.61,0,5.4.16,1.96.65,4.16,2.34,5.15.93.53,2.18.67,2.75,1.57.24.37.43.93.87.95.22,0,.43-.1.58-.26,1.75-1.53.86-4.37,1.29-6.66.04-.26.14-.51.28-.73.29-.31.64-.55,1.04-.69,1.34-.71,2.38-1.89,2.9-3.31,1.82,2.01,4.13,3.5,6.72,4.33.86.21,1.68.56,2.43,1.04.6.55,1.15,1.14,1.64,1.78,2.27,2.33,6.44,2,8.8-.25,2.26-2.43,3.09-5.86,2.21-9.06-.91.51-2.02.51-2.94,0,.27.16,2.65-3.54,2.08-4.16s-3.96,1.25-4.83,1.34Z"></path><path class="cls-24" d="M329.91,226.32c3.16,3.2,6.5,6.23,10.01,9.05.32.29.7.51,1.1.65.56.09,1.13.02,1.66-.2,1.2-.39,2.38-.78,3.57-1.19,3.37-1.04,6.65-2.34,9.82-3.88,3.12-1.63,5.74-6.92,8.71-6.86.06.6-.44,1.43-.37,2.03,0,.2.07.39.19.54.12.1.26.16.41.18,2.08.43,4.09-.85,6.06-1.69.3-.16.65-.23.99-.2.83.16,1.04,1.35.6,2.08-.52.67-1.12,1.27-1.77,1.81-1.54,1.67-1.48,4.25-2.55,6.25-.92,1.71-2.6,2.87-4.52,3.12-.54.03-1.07.09-1.6.19-.88.3-1.69.76-2.38,1.36-4.01,2.76-8.3,5.09-12.81,6.95-1.78.9-3.65,1.6-5.59,2.08-1.51.2-3,.48-4.48.84-1.33.44-2.6,1.23-4.01,1.15-2.01-.14-3.4-2-4.52-3.69-2.08-3.21-4.81-6.92-5.49-10.8-.32-1.83,1.37-3.12,2.5-4.41l4.48-5.37Z"></path><path class="cls-22" d="M346.78,383.53c-.02.41.09.82.31,1.18.19.21.43.37.7.47,1.02.36,2.1.54,3.19.53,7.11.33,14.23.39,21.34.17-2.51-2.89-5.95-4.83-9.72-5.49-1.76-.3-3.57-.32-5.31-.76-.16-.03-.32-.1-.45-.21-.12-.16-.18-.35-.2-.54l-.44-2.79c0-.15-.04-.3-.14-.42-.14-.11-.31-.16-.49-.14l-4.88-.08c-.96,0-2.31-.25-3.12.35s-.75,1.98-.79,2.94c-.06,1.61-.06,3.21,0,4.79Z"></path><path class="cls-22" d="M316.95,359.69c-.34.27-.6.63-.73,1.04-.06.41,0,.82.19,1.19,1.84,4.85,5.49,8.76,9.06,12.49,2.87,3.04,5.81,6.13,9.48,8.13,1.75-5.14-.09-11.02-3.56-15.2-.45-.43-.73-1-.81-1.61.12-.56.32-1.1.58-1.61.16-1.15-.23-2.3-1.04-3.12-1.64-2.35-3.69-4.37-6.06-5.99-1.71-1.04-2.08-.24-3.41,1.04l-3.7,3.64Z"></path><path class="cls-24" d="M331.97,176.81c-.3-.25-.74-.25-1.04,0-.28.27-.41.66-.35,1.04.06.38.2.73.43,1.04.29.44.95,1.42,1.53,1.48s.81-.29.66-.79-.73-.7-.88-1.19.09-1.22-.33-1.58Z"></path><path class="cls-20" d="M361.68,214.6h0c-.09.24-.24.45-.44.61-1.19,1.17-2.37,2.32-3.54,3.49.07.85-3.5-8.72-4.16-14.23,1.04.24,2.5,3.39,3.25,4.28,1.11,1.31,2.33,2.53,3.53,3.76h0l.41.41c.19.2.37.4.54.62h0c.18.26.3.55.34.86,0,0,.07.16.07.2Z"></path><path class="cls-1" d="M318.84,237.64c-.08,0-.15,0-.23,0,.07-.05.16-.05.23,0Z"></path><path class="cls-21" d="M329.06,195.55c-.09.69-.42,1.33-.94,1.8-2.39,2.47-5.67,3.22-7.6,6.4-.95,1.74-1.65,3.6-2.08,5.53-.98,3.23-1.68,6.53-2.08,9.88-.41,3.37.09,6.78,1.43,9.89.96,2.08,2.41,3.94,2.57,6.16.05.45-.02.91-.21,1.32-.3.46-.73.82-1.23,1.04l-.47.21-.74.11c-2.13-7-3.45-14.23-3.95-21.53-.28-4.33-.23-8.91,1.93-12.68,1.87-2.96,4.6-5.29,7.83-6.66,1.76-.76,3.63-1.26,5.54-1.48Z"></path><path class="cls-19" d="M329.59,212.43l3.98,7.85c.7,1.29,1.28,2.64,1.72,4.04.74,2.63.52,5.5,1.53,8.03-.49-1.22-3.9-2.72-4.88-3.78-2.25-2.44-.21-1.73.12-4.23.2-1.46-1.47-3.88-1.85-5.38-.55-2.13-.76-4.33-.61-6.53Z"></path></g><g id="character_2"><path class="cls-3" d="M139.57,373.59c-7.79,0-16.75.56-21.43,6.79l30.44,7.23c1.83.43,3.83.97,4.94,2.5,1.86,2.59.11,6.25.86,9.37,1.29,5.35,8.51,6.08,13.99,5.65l48.63-3.83c12.14-.96,25.17-1.71,35.62,4.54,4.9,2.94,8.89,7.29,13.92,9.97,10.79,5.81,24.22,3.12,35.46-1.72,11.24-4.84,21.69-11.87,33.59-14.78,9.85-2.42,20.21-1.93,30.12-4.06,10.11-2.2,19.46-7.05,27.07-14.07-.6.56-26.73-5.64-29.94-5.77-7.53-.29-15.07.43-22.6.41-21.94-.06-43.89-.88-65.82-1.21-44.93-.68-89.88-1.02-134.85-1.02Z"></path><path class="cls-25" d="M208.48,157.63c-2.15,0-3.9-1.74-3.9-3.89v-29.29c-.11-2.15,1.54-3.99,3.7-4.1,2.15-.11,3.99,1.54,4.1,3.7,0,.13,0,.27,0,.4v29.29c0,2.15-1.75,3.89-3.89,3.89Z"></path><ellipse class="cls-25" cx="201.58" cy="253.93" rx="82.78" ry="99.68"></ellipse><ellipse class="cls-17" cx="196.49" cy="249.02" rx="75.09" ry="84.11"></ellipse><path class="cls-18" d="M201.58,154.25c-45.72,0-82.77,44.63-82.77,99.69s37.05,99.68,82.77,99.68,82.78-44.63,82.78-99.68-37.05-99.69-82.78-99.69ZM198.97,338.02c-42.83,0-77.57-39.01-77.57-87.11s34.75-87.11,77.57-87.11,77.58,39,77.58,87.11-34.73,87.11-77.58,87.11Z"></path><path class="cls-7" d="M165.53,262.92c1.89.1,1.48-3.5,1.65-5.39.54-6.16-.16-12.4.46-18.55s2.85-12.58,7.86-16.22c1.51-1.04,3.27-1.95,4.38-3.44,1.31-1.74,1.53-4.05,2.29-6.09,2.08-5.7,8.71-8.94,14.76-8.33,6.05.61,11.4,4.5,15.05,9.37,2.08,2.73,3.74,5.86,6.5,7.87,1.44,1.04,3.12,1.74,4.47,2.87,2.05,1.95,3.42,4.5,3.9,7.29,1.25,5.41.82,11.06,1.11,16.66.29,5.6,1.45,11.38,5.21,15.47,1.98,2.14,4.55,3.68,6.54,5.81s3.36,5.29,2.2,7.96-3.99,3.69-6.51,4.82c-10.11,4.52-18.67,12.59-29.44,15.1-9.66,2.25-19.92-.35-28.71-4.94-8.8-4.58-16.27-11.22-24.21-17.18-15.13-11.18,0-13.83,12.49-13.09Z"></path><path class="cls-23" d="M170.5,282.51c-3.54-6.82-9.43-14.03-17.1-13.35-1.94.18-3.82.88-5.77,1.04-3.89.24-7.52-1.82-11.29-2.84s-8.7-.44-10.27,3.12c-.97,2.23-.25,4.8.55,7.09,6.25,17.7,17.34,33.87,32.73,44.52,15.4,10.65,35.17,15.39,53.4,11.11,7.86-1.85,15.27-5.28,22.4-9.09,6-3.21,11.92-6.77,16.66-11.67,8.45-8.82,12.17-21.03,15.62-32.75,1.04-3.65,1.93-8.19-.86-10.79-1.41-1.16-3.19-1.77-5.02-1.73-3.96-.11-7.79,1.39-10.62,4.16-1.15,1.15-2.17,2.52-3.69,3.07-1.99.73-4.16-.19-6.25-.46-10.26-1.32-16.14,11.9-25.77,15.69-4.87,1.92-10.22,1.11-15.19,2.54-4.57,1.31-8.5,5.39-13.17,6.14-9.18,1.45-12.88-9.07-16.38-15.81Z"></path><path class="cls-4" d="M170.5,282.51c-3.54-6.82-9.43-14.03-17.1-13.35-1.94.18-3.82.88-5.77,1.04-3.89.24-7.52-1.82-11.29-2.84s-8.7-.44-10.27,3.12c-.97,2.23-.25,4.8.55,7.09,6.25,17.7,17.34,33.87,32.73,44.52,15.4,10.65,35.17,15.39,53.4,11.11,7.86-1.85,15.27-5.28,22.4-9.09,6-3.21,11.92-6.77,16.66-11.67,8.45-8.82,12.17-21.03,15.62-32.75,1.04-3.65,1.93-8.19-.86-10.79-1.41-1.16-3.19-1.77-5.02-1.73-3.96-.11-7.79,1.39-10.62,4.16-1.15,1.15-2.17,2.52-3.69,3.07-1.99.73-4.16-.19-6.25-.46-10.26-1.32-16.14,11.9-25.77,15.69-4.87,1.92-10.22,1.11-15.19,2.54-4.57,1.31-8.5,5.39-13.17,6.14-9.18,1.45-12.88-9.07-16.38-15.81Z"></path><path class="cls-5" d="M169.01,282.93c-1.5-.23-2.79,1.34-2.84,2.86.09,1.53.61,3,1.49,4.25l5.93,10.29c-6.62,1.04-12.42-3.96-18.02-7.63-1.94-1.26-4.89-2.25-6.25-.37-.96,1.32-.29,3.28.93,4.35,1.33.96,2.8,1.69,4.36,2.18,5.27,2.2,9.37,6.62,14.5,9.06,3.37,1.58,7.08,2.27,10.61,3.47,3.35,1.13,6.9,3.12,7.74,6.6.61,2.57-.47,5.21-.46,7.87s2.14,5.76,4.65,4.94c1.6-.53,2.32-2.34,2.84-3.95l3.81-11.76c4.16,2.76,3.76,9.88,8.24,12.03l1.09-7.51c.05-.72.24-1.43.56-2.08.78-1.07,1.97-1.76,3.28-1.92,2.57-.52,5.28-.31,7.77-1.13,3.59-1.2,6.12-4.33,8.92-6.88,3.25-2.97,7.04-5.27,10.47-8.03,6.5-5.26,11.57-12.06,14.76-19.78-2.43-.81-5.04.9-6.5,3s-2.21,4.64-3.68,6.76c-2.53,3.53-6.76,5.44-11.08,5-.9-2.56-.14-5.42,1.93-7.18.54-.37,1.05-.79,1.5-1.26,1.78-2.14-.67-5.62-3.45-5.87s-5.31,1.42-7.67,2.92c-4.73,3-9.74,5.53-14.96,7.54-3.69,1.43-7.59,2.61-11.54,2.3-6.04-.47-11.18-4.16-17.11-5.11-2.29-.35-5.47.87-7.41-.1s-1.94-4.44-4.44-4.81Z"></path><path class="cls-24" d="M191.21,327.78c-.81,1.17-1.37,2.5-1.65,3.89-.05,1.52.35,3.02,1.15,4.31.6,1.15,1.54,2.39,2.82,2.31.48-.07.94-.24,1.34-.5.8-.42,1.52-.96,2.14-1.61,1.46-1.64,1.71-4.02,1.65-6.25s-.36-4.45.24-6.55c.76-2.65,2.9-4.84,3.24-7.58-1.47-.41-4.34-1.86-5.82-1.6s-1.22,2.21-1.43,3.36c-.6,3.6-1.84,7.06-3.69,10.21Z"></path><path class="cls-24" d="M200.61,319.55c.36.8.64,1.63.85,2.48.16.83.24,1.67.25,2.52l.51,10.9c-.05,1.12.2,2.24.73,3.23.95,1.46,2.92,1.88,4.63,1.68.55-.03,1.09-.23,1.53-.56.31-.29.55-.65.71-1.04.41-.83.7-1.72.84-2.63.34-2.41-.62-4.8-1.71-6.98s-2.31-4.36-2.55-6.79c-.2-1.92.26-3.86.06-5.78-.17-1.63-.81-3.24-.69-4.87-1.2.15-2.39.36-3.56.65-.94.23-2.79.45-3.54,1.04-.87.85,1.46,5.02,1.93,6.16Z"></path><path class="cls-22" d="M183.41,205.03c-2.5-3.09-3.76-7-3.52-10.96.27-3.96,1.92-7.7,4.67-10.57,2.08-2.14,4.88-3.8,7.82-3.51,1.1-1.52,3.3-1.96,5.13-2.36,3.18-.76,6.5-.65,9.62.31,3.13.98,5.8,3.05,7.52,5.85,1.44,2.77,2.22,5.83,2.28,8.94.05,3.1.4,6.2,1.04,9.23.82,3,2.58,5.9,5.37,7.29.45.16.85.43,1.16.79.54.79,0,1.87-.75,2.52-1.56,1.38-3.67,1.97-5.73,1.6l.9,1.97c.17.2.15.49-.05.66-.04.04-.1.07-.15.09-1.65,1.01-3.71,1.05-5.4.11.07.78.03,1.56-.11,2.33-2.14-.24-4.2-.98-6.01-2.14,0,1.26-1.37,2.16-2.62,2.08-1.25-.2-2.44-.66-3.49-1.36-.31-.21-.67-.32-1.04-.34-.76,0-1.27.73-1.85,1.21-1.13.82-2.57,1.07-3.91.69-1.32-.38-2.57-.99-3.69-1.8.19.75-.6,1.47-1.37,1.47-.77-.07-1.5-.42-2.03-.99-1.37-1.15-2.31-2.71-2.7-4.46-.44.6-1.01,1.09-1.67,1.44-.68.34-1.5.2-2.02-.35-.57-.74-.18-1.79.24-2.62l1.45-2.93c.74-1.51,1.99-2.87.92-4.19Z"></path><path class="cls-6" d="M223.84,212.55c-1.56,1.38-3.67,1.97-5.72,1.6l.91,1.97c.09.14.11.3.07.46-.06.13-.16.23-.28.3-1.65,1-3.71,1.04-5.4.1.07.78.03,1.56-.11,2.33-2.14-.24-4.2-.98-6.01-2.14.05,1.26-1.36,2.14-2.63,2.08-1.25-.19-2.44-.65-3.48-1.36-.31-.2-.67-.32-1.04-.34-.76,0-1.27.74-1.85,1.22-1.13.82-2.57,1.07-3.91.69-1.32-.39-2.57-1-3.69-1.8.19.75-.59,1.46-1.37,1.47-.77-.07-1.5-.42-2.03-.99-1.37-1.15-2.32-2.72-2.7-4.47-.44.6-1.01,1.1-1.67,1.45-.69.37-1.55.22-2.08-.35-.56-.74-.16-1.8.25-2.62.49-.98.96-1.95,1.45-2.93.75-1.51,1.98-2.87.91-4.16-1.38-1.68-2.39-3.63-2.97-5.73-.46-1.69-.65-3.45-.55-5.21.27-3.96,1.93-7.7,4.67-10.57,2.08-2.08,4.87-3.79,7.82-3.5,1.09-1.52,3.3-1.96,5.13-2.36,3.18-.76,6.5-.65,9.62.31,3.13.98,5.8,3.05,7.52,5.85,1.43,2.77,2.21,5.83,2.27,8.94.08,2.87.39,5.73.92,8.56,0,.24.1.46.17.68.83,3,2.59,5.91,5.38,7.29.45.17.84.44,1.17.79.51.72-.08,1.8-.75,2.45Z"></path><path class="cls-23" d="M180.75,225.61c-1.36.52-2.56,1.39-3.48,2.52-.68,1.15-1.09,2.43-1.2,3.76-2.03,13.74-.95,27.73.14,41.57l1.52,19.37c.28,3.66.62,7.5,2.61,10.59,1.44,2.08,3.38,3.75,5.64,4.88,7.51,4,16.51,3.37,24.99,2.65,1.87-.05,3.72-.42,5.47-1.09,2.55-1.34,4.54-3.56,5.58-6.25,2.02-4.47,2.36-9.5,2.48-14.41.3-13.07-.88-26.16-.07-39.22.46-7.29,1.34-15.29-2.96-21.18-2.76-3.46-6.66-5.81-11-6.65-9.43-2.11-20.99-.57-29.71,3.46Z"></path><path class="cls-22" d="M173.66,287.45c-.06,2.73.21,5.46.8,8.12.44,2.07,1.16,4.07,2.16,5.93,2.3,3.86,5.79,6.86,9.94,8.57,4.14,1.68,8.52,2.67,12.98,2.92,4.61.51,9.27.16,13.75-1.04,4.51-1.23,8.39-4.11,10.87-8.07,2.7-4.66,2.62-10.41,2.35-15.75-.3-5.77-.78-11.65-3.02-16.98-.22-.61-.57-1.17-1.04-1.62-1.16-.82-2.73-.75-3.82.17-1.04.92-1.86,2.06-2.41,3.33l-6.98,13.68c-.35.82-.86,1.55-1.51,2.17-1.42,1.17-3.54.92-5.21.23-2.97-1.34-5.54-3.43-7.47-6.06-2.01-2.54-3.66-5.34-5.59-7.94-.72-1.04-1.6-1.97-2.6-2.75-1.89-1.16-4.08-1.76-6.3-1.72-2.28-.09-2.81.25-3.7,2.39-1.95,4.57-3.04,9.46-3.23,14.43Z"></path><path class="cls-13" d="M173.66,287.45c-.06,2.73.21,5.46.8,8.12.44,2.07,1.16,4.07,2.16,5.93,2.3,3.86,5.79,6.86,9.94,8.57,4.14,1.68,8.52,2.67,12.98,2.92,4.61.51,9.27.16,13.75-1.04,4.51-1.23,8.39-4.11,10.87-8.07,2.7-4.66,2.62-10.41,2.35-15.75-.3-5.77-.78-11.65-3.02-16.98-.22-.61-.57-1.17-1.04-1.62-1.16-.82-2.73-.75-3.82.17-1.04.92-1.86,2.06-2.41,3.33l-6.98,13.68c-.35.82-.86,1.55-1.51,2.17-1.42,1.17-3.54.92-5.21.23-2.97-1.34-5.54-3.43-7.47-6.06-2.01-2.54-3.66-5.34-5.59-7.94-.72-1.04-1.6-1.97-2.6-2.75-1.89-1.16-4.08-1.76-6.3-1.72-2.28-.09-2.81.25-3.7,2.39-1.95,4.57-3.04,9.46-3.23,14.43Z"></path><path class="cls-23" d="M177.77,227.64c-1.71.77-2.76,2.5-3.6,4.16-3.18,6.38-4.87,13.4-4.95,20.53,0,1.6.12,3.38,1.27,4.51,1.53,1.51,4.03,1.15,6.09.56,2.93-.82,6.16-2.3,6.92-5.21.91-3.49-2.36-8.21-3.34-11.54-.37-1.25-3.48-12.54-2.39-13.02Z"></path><path class="cls-24" d="M195.11,223.34c.06.77.25,1.53.57,2.23.57.99,1.51,1.72,2.61,2.03.29.09.59.13.9.11.25-.03.49-.1.72-.21.73-.34,1.36-.84,1.84-1.48.73-1.08,1.17-2.33,1.29-3.62.28-2.19.36-4.4.25-6.61.07-.59-.14-1.19-.57-1.6-.25-.13-.53-.21-.81-.23-1.06-.12-2.12-.18-3.19-.18-1.08-.07-2.17-.02-3.24.16-.5.11-.44.32-.49.82s-.08,1.04-.11,1.59c-.06,1.1-.07,2.21,0,3.3s.08,2.47.23,3.69Z"></path><path class="cls-25" d="M195.04,223.02c.07-.44.24-.86.49-1.23.35-.36.83-.57,1.33-.58,2.66-.37,5.36-.37,8.02,0,.71.02,1.38.35,1.81.92.33.68.47,1.43.41,2.19.05,4.1-.21,8.19-.79,12.24-.3,1.92-.81,4.04-2.18,4.95s-2.69.36-4.01-.08l-3.57-1.24c-.37-.1-.72-.25-1.04-.46-1.61-1.19-1.78-4.67-1.74-6.78.07-3.34.49-6.67,1.27-9.92Z"></path><path class="cls-11" d="M195.04,223.02c.07-.44.24-.86.49-1.23.35-.36.83-.57,1.33-.58,2.66-.37,5.36-.37,8.02,0,.71.02,1.38.35,1.81.92.33.68.47,1.43.41,2.19.05,4.1-.21,8.19-.79,12.24-.3,1.92-.81,4.04-2.18,4.95s-2.69.36-4.01-.08l-3.57-1.24c-.37-.1-.72-.25-1.04-.46-1.61-1.19-1.78-4.67-1.74-6.78.07-3.34.49-6.67,1.27-9.92Z"></path><path class="cls-25" d="M195.98,224.34c.07-.44.24-.86.49-1.23.35-.36.82-.57,1.32-.58,2.66-.37,5.36-.37,8.03,0,.71.02,1.37.36,1.81.92.33.68.47,1.43.41,2.19.05,4.1-.22,8.19-.8,12.24-.29,1.93-.81,4.04-2.18,4.95-1.21.81-2.69.37-4.01-.08l-3.56-1.24c-.37-.1-.72-.25-1.04-.46-1.61-1.19-1.78-4.67-1.74-6.78.06-3.34.49-6.67,1.27-9.92Z"></path><path class="cls-24" d="M187.84,207.58c.8,1.36,1.77,2.61,2.89,3.72,1.52,1.62,3.12,3.29,5.3,3.87,2.05.4,4.18.19,6.11-.59.87-.27,1.72-.62,2.53-1.04,2.04-1.26,3.79-2.96,5.1-4.97.57-.72,1.04-1.5,1.42-2.33.38-.98.6-2.01.66-3.06.12-1.54.12-3.08,0-4.62,0-1.98-.62-3.92-1.78-5.53-.75-.85-1.68-1.53-2.72-2-4.11-1.99-8.9-1.84-13.45-1.38-2.08.22-4.29.56-5.78,2.02-1.95,1.91-1.93,4.24-1.71,6.69.33,3.23-.18,6.24,1.43,9.22Z"></path><path class="cls-22" d="M217.84,201.29c-1.59,0-3.26-.11-3.48.21-.63.67-1.65.78-2.41.26v-2.45c-.94.28-1.92-.25-2.21-1.18-.05-.16-.07-.33-.08-.49-1.74.82-3.69,1.12-5.6.84-1.67-.07-3.33-.33-4.95-.78-4.39-1.59-7.7-5.26-8.82-9.79-.11,1.87-1.89,3.51-2.59,5.21-.34,1.09-.59,2.2-.74,3.33-.19,1.08-.62,2.11-1.25,3.01-.63.91-1.6,1.54-2.69,1.75-.6-.93-1.53-1.61-2.6-1.91-.46-1.69-.65-3.45-.55-5.21.27-3.96,1.93-7.7,4.67-10.57,2.08-2.08,4.87-3.79,7.82-3.5,1.09-1.52,3.3-1.96,5.13-2.36,3.18-.76,6.5-.65,9.62.31,3.13.98,5.8,3.05,7.52,5.85,1.43,2.77,2.21,5.83,2.27,8.94.08,2.86.39,5.71.92,8.52Z"></path><path class="cls-9" d="M217.84,201.29c-1.59,0-3.26-.11-3.48.21-.63.67-1.65.78-2.41.26v-2.45c-.94.28-1.92-.25-2.21-1.18-.05-.16-.07-.33-.08-.49-1.74.82-3.69,1.12-5.6.84-1.67-.07-3.33-.33-4.95-.78-4.39-1.59-7.7-5.26-8.82-9.79-.11,1.87-1.89,3.51-2.59,5.21-.34,1.09-.59,2.2-.74,3.33-.19,1.08-.62,2.11-1.25,3.01-.63.91-1.6,1.54-2.69,1.75-.6-.93-1.53-1.61-2.6-1.91-.46-1.69-.65-3.45-.55-5.21.27-3.96,1.93-7.7,4.67-10.57,2.08-2.08,4.87-3.79,7.82-3.5,1.09-1.52,3.3-1.96,5.13-2.36,3.18-.76,6.5-.65,9.62.31,3.13.98,5.8,3.05,7.52,5.85,1.43,2.77,2.21,5.83,2.27,8.94.08,2.86.39,5.71.92,8.52Z"></path><path class="cls-24" d="M213.57,205.96c.68-.18,1.27-.59,1.68-1.17.31-.53.46-1.13.43-1.74.05-.84-.3-1.66-.94-2.21-.81-.57-1.92-.39-2.5.42-.13.19-.23.4-.28.62-.08.38-.1.78-.06,1.17,0,.91-.11,1.82-.31,2.71-.11.58,0,.53.59.48.47-.04.94-.13,1.4-.28Z"></path><path class="cls-24" d="M184.07,205.13c-.75-.81-1.16-1.87-1.17-2.98-.03-.56.07-1.12.31-1.62.2-.42.51-.78.9-1.04.74-.53,1.75-.45,2.39.2.16.22.28.46.35.72.22.79.34,1.6.37,2.42.06.76.12,1.52.18,2.27.05.59.28,1.04-.3,1.18-1.18.31-2.14-.69-3.04-1.13Z"></path><path class="cls-23" d="M226.61,249.94c1.3,1.18,2.36,2.59,3.12,4.16.75,1.58.87,3.38.32,5.04-.58,1.67-2.08,2.86-3.84,3.03-1.21-.02-2.39-.38-3.41-1.03-2.55-1.31-4.87-3.02-6.87-5.08-.31-.27-.53-.64-.61-1.04,0-.53.22-1.03.59-1.41,1.53-1.96,3.19-5.21,5.21-6.62,1.19-.88,1.16-.67,2.51.34,1.06.79,2.06,1.66,2.99,2.6Z"></path><path class="cls-24" d="M201.77,240.4c-.53-.43-1-.93-1.38-1.49-1.22-1.95-.37-4.63-1.42-6.69-.39-.76-1.04-1.54-.82-2.36.28-1.04,1.76-1.24,2.85-1.04,1.76.32,3.44.99,4.95,1.96.87-.67,1.52-1.58,1.88-2.61,1.3,1.4.66,3.64,1.04,5.52s2.08,3.45,3.56,4.78l10.89,9.54c1.62.81,2.28,2.78,1.47,4.4-.25.51-.63.94-1.1,1.25-1.19,1.41-2.48,3.33-4.29,2.47-2.08-.97-4.16-3.71-5.88-5.21l-11.74-10.51Z"></path><path class="cls-22" d="M175.12,271.75l22.12,42.43,8.44-2.68s-10.96-54.14-17.12-57.14c-1.51-.73-5.07.46-8.95,2.59-5.27,2.89-7.26,9.46-4.5,14.79Z"></path><path class="cls-8" d="M175.12,271.75l22.12,42.43,8.44-2.68s-10.96-54.14-17.12-57.14c-1.51-.73-5.07.46-8.95,2.59-5.27,2.89-7.26,9.46-4.5,14.79Z"></path><path class="cls-22" d="M215.35,255.09s-5.43.44-6.25,3.9-14.85,54.74-14.85,54.74l10.41,2.6s19.94-43.34,20.82-49.41-10.14-11.84-10.14-11.84Z"></path><path class="cls-22" d="M215.35,255.09s-5.43.44-6.25,3.9-14.85,54.74-14.85,54.74l10.41,2.6s19.94-43.34,20.82-49.41-10.14-11.84-10.14-11.84Z"></path><path class="cls-25" d="M186.13,339.8c-.05,1.66.55,3.28,1.68,4.51,1.56,1.36,3.78,1.66,5.65.77,1.83-.92,3.23-2.51,3.9-4.45.65-1.92.95-3.94.88-5.97.05-.64-.06-1.28-.31-1.86-.36-.58-.87-1.04-1.48-1.34-1.95-1.12-5.94-2.56-7.67-.81-1.92,1.94-2.74,6.56-2.65,9.15Z"></path><path class="cls-25" d="M203.76,343c1.39,2.51,4.04,4.06,6.91,4.04,1.05-.03,2.06-.43,2.84-1.13,1.03-1.25,1.47-2.89,1.2-4.49-.06-1.12-.3-2.23-.7-3.28-.93-2-2.23-3.8-3.84-5.3-.08-.11-.19-.19-.32-.22-.13,0-.25.06-.35.15-1.08.87-2.25,1.6-3.51,2.18-2.18.85-3.76-.69-3.74,2.27-.01,2.03.51,4.02,1.51,5.79Z"></path><path class="cls-22" d="M186.13,339.8c-.05,1.66.55,3.28,1.68,4.51,1.56,1.36,3.78,1.66,5.65.77,1.83-.92,3.23-2.51,3.9-4.45.65-1.92.95-3.94.88-5.97.05-.64-.06-1.28-.31-1.86-.36-.58-.87-1.04-1.48-1.34-1.95-1.12-5.94-2.56-7.67-.81-1.92,1.94-2.74,6.56-2.65,9.15Z"></path><path class="cls-22" d="M203.76,343c1.39,2.51,4.04,4.06,6.91,4.04,1.05-.03,2.06-.43,2.84-1.13,1.03-1.25,1.47-2.89,1.2-4.49-.06-1.12-.3-2.23-.7-3.28-.93-2-2.23-3.8-3.84-5.3-.08-.11-.19-.19-.32-.22-.13,0-.25.06-.35.15-1.08.87-2.25,1.6-3.51,2.18-2.18.85-3.76-.69-3.74,2.27-.01,2.03.51,4.02,1.51,5.79Z"></path><path class="cls-25" d="M300.88,325.07c-14.35,25.64-35.1,42.01-51.57,53.42-.65.45-1.42.7-2.22.7-.44,0-.88-.08-1.3-.23-2.03-.71-3.1-2.94-2.38-4.96.27-.78.79-1.45,1.47-1.92,15.77-10.92,35.64-26.58,49.19-50.81,15.39-27.51,20.16-61.93,14.17-102.3-5.53-37.31-26.69-64.27-62.92-80.11-17.05-7.32-35.24-11.64-53.76-12.77-2.16-.05-3.86-1.85-3.81-4s1.85-3.86,4-3.81c19.47,1.11,38.59,5.62,56.5,13.33,38.44,16.73,61.85,46.55,67.75,86.22,6.18,42.12,1.1,78.22-15.13,107.25Z"></path><path class="cls-12" d="M297.13,325.69c-14.27,25.51-34.91,41.85-51.35,53.25-2.03-.71-3.1-2.94-2.38-4.96.27-.78.79-1.45,1.47-1.92,15.77-10.92,35.64-26.58,49.19-50.81,15.39-27.51,20.16-61.93,14.17-102.3-5.53-37.31-26.69-64.27-62.92-80.11-17.05-7.31-35.24-11.63-53.75-12.76-2.16-.07-3.85-1.87-3.78-4.03.04-1.24.67-2.39,1.69-3.09,18.97,1.28,37.59,5.77,55.06,13.27,38.44,16.66,61.86,46.54,67.76,86.22,6.16,42.11,1.08,78.2-15.16,107.24Z"></path><path class="cls-25" d="M295.22,414.97l-.05.06c-.74.9-1.84,1.42-3.01,1.42-.91,0-1.79-.31-2.49-.9l-43.31-35.81-60.27,23.44c-2.01.78-4.28-.22-5.05-2.23-.78-2.01.22-4.28,2.23-5.05l64.55-25.09,46.85,38.72c1.64,1.36,1.88,3.78.55,5.45Z"></path><path class="cls-10" d="M295.22,414.97l-.05.06c-.74.9-1.84,1.42-3.01,1.42-.91,0-1.79-.31-2.49-.9l-43.31-35.81-60.27,23.44c-1.59.63-3.41.13-4.47-1.22.43-.55,1-.97,1.65-1.23l64.52-25.07,46.85,38.73c.22.17.41.36.58.57Z"></path><path class="cls-24" d="M196.57,231.76c-.79,0-1.51-.46-1.83-1.19-.12-.35-.09-.75-.23-1.11s-.51-.69-.86-.53c-.14.07-.25.17-.32.3-.79,1.16-.53,2.71-.85,4.08-.29,1-.76,1.93-1.38,2.76-3.16,4.31-7.17,7.91-11.79,10.6-1.28.64-2.42,1.54-3.32,2.65-1.03,1.68-1.13,3.76-.27,5.53.42,1.13,1.57,1.82,2.76,1.66,2.48-.12,4.88-.94,6.91-2.36,3.83-2.37,7.16-5.48,9.79-9.14.51-.79,1.1-1.53,1.75-2.21.94-.69,1.78-1.49,2.51-2.39.64-1.42.69-3.03.14-4.49-.39-1.12-.63-2.29-.74-3.48,0-.48.15-1.04-.45-1.04s-1.19.4-1.8.36Z"></path></g><g id="bubble_chat"><rect class="cls-23" x="112.7" y="137.6" width="68.02" height="31.09" rx="5.68" ry="5.68"></rect><polygon class="cls-23" points="180.44 147.56 180.44 179.99 172.72 151.71 180.44 147.56"></polygon><text class="cls-26" transform="translate(135.5 154.49)"><tspan x="0" y="0">. . .</tspan></text><rect class="cls-23" x="345.21" y="112.26" width="68.02" height="31.09" rx="5.68" ry="5.68"></rect><polygon class="cls-23" points="345.49 122.22 345.49 154.65 353.22 126.37 345.49 122.22"></polygon><text class="cls-26" transform="translate(373.04 130.04)"><tspan x="0" y="0">. . .</tspan></text></g></svg>