<?xml version="1.0" standalone="no"?>
<!DOCTYPE svg PUBLIC "-//W3C//DTD SVG 20010904//EN"
 "http://www.w3.org/TR/2001/REC-SVG-20010904/DTD/svg10.dtd">
<svg version="1.0" xmlns="http://www.w3.org/2000/svg"
 width="700.000000pt" height="700.000000pt" viewBox="0 0 700.000000 700.000000"
 preserveAspectRatio="xMidYMid meet">
<metadata>
Created by potrace 1.14, written by Peter Selinger 2001-2017
</metadata>
<g transform="translate(0.000000,700.000000) scale(0.100000,-0.100000)"
fill="#000000" stroke="none">
<path d="M1000 6690 c-342 -73 -593 -311 -681 -645 l-24 -90 0 -1700 0 -1700
22 -49 c50 -106 150 -170 268 -169 125 0 109 -14 729 605 l559 558 846 1 c465
0 855 2 866 4 11 2 36 5 55 8 163 21 339 110 466 234 148 145 239 331 262 533
9 82 7 1633 -2 1680 -4 19 -9 46 -11 60 -9 52 -56 175 -90 235 -117 210 -310
359 -550 427 l-80 23 -1275 2 c-1200 2 -1280 1 -1360 -17z m2586 -578 c84 -24
169 -112 195 -202 6 -23 9 -311 7 -825 l-3 -790 -23 -45 c-33 -63 -86 -115
-146 -141 l-51 -23 -930 -1 c-887 -1 -933 -2 -985 -20 -51 -18 -83 -47 -410
-372 -196 -194 -358 -353 -360 -353 -7 0 -4 2540 3 2567 24 95 124 190 222
211 63 13 2434 7 2481 -6z"/>
<path d="M5187 4659 c-215 -48 -300 -313 -152 -477 27 -30 65 -58 97 -73 52
-23 59 -23 398 -24 391 -2 414 -5 494 -76 25 -22 57 -65 73 -97 l28 -57 0
-1277 c0 -703 -2 -1278 -5 -1278 -3 0 -159 153 -345 340 -343 343 -387 380
-470 396 -20 3 -452 7 -959 8 l-921 1 -50 27 c-63 33 -108 78 -138 137 -20 42
-22 64 -27 266 -5 196 -8 225 -26 266 -61 132 -195 198 -339 164 -88 -20 -151
-74 -194 -165 -24 -53 -25 -61 -25 -255 0 -312 19 -410 108 -570 51 -91 86
-137 160 -209 139 -134 316 -219 506 -242 30 -3 431 -6 892 -6 l836 -1 559
-558 c620 -620 601 -604 728 -603 94 0 161 30 220 98 25 28 45 58 45 66 0 9 6
22 13 29 9 9 12 367 12 1719 l0 1707 -22 83 c-87 326 -323 561 -644 643 -77
20 -113 21 -449 24 -201 1 -382 -2 -403 -6z"/>
</g>
</svg>
